<svg xmlns="http://www.w3.org/2000/svg" width="66.885" height="64" version="1.1" viewBox="0 0 66.885 64" xml:space="preserve"><metadata/><g><g fill="currentColor" transform="translate(-30.558 -32) matrix(1.7016 0 0 1.7016 -237.69 -115.36)"><circle cx="166.69" cy="95.647" r="9.048" stroke-width=".588"/><rect width="16.412" height="16.412" x="158.41" y="107.8" stroke-width=".588" rx="4.377" ry="4.377"/><path stroke-width=".553" d="m69.514 58.833h-1.7806-10.247a2.4441 2.4441 60 0 1-2.1167-3.6662l6.0139-10.416a2.4441 2.4441 2.522e-7 0 1 4.2333 0l6.0139 10.416a2.4441 2.4441 120 0 1-2.1167 3.6662z" transform="matrix(.9259 .53457 .53457 -.9259 99.826 110.69)"/><path stroke-width="5.877" d="m194.99 116.11c0 0.87946-0.70801 1.5875-1.5875 1.5875h-12.7c-0.87946 0-1.5875-0.70802-1.5875-1.5875s0.70802-1.5875 1.5875-1.5875h12.7c0.87946 0 1.5875 0.70801 1.5875 1.5875zm-7.9375-7.9375c0.87946 0 1.5875 0.70802 1.5875 1.5875v12.7c0 0.87946-0.70802 1.5875-1.5875 1.5875-0.87947 0-1.5875-0.70802-1.5875-1.5875v-12.7c0-0.87947 0.70802-1.5875 1.5875-1.5875z"/></g></g><style>g,path{fill:#000}@media (prefers-color-scheme:dark){g,path{fill:#fff}}</style></svg>