<svg xmlns="http://www.w3.org/2000/svg" width="16" height="16" version="1.1" viewBox="0 0 16 16"><metadata/><g fill="currentColor" transform="matrix(.40706 0 0 .40706 -64.169 -35.251)"><circle cx="167.47" cy="96.425" r="9.827" stroke-width="2.457"/><rect width="17.197" height="17.197" x="157.64" y="108.71" stroke-width="2.457" rx="4.586" ry="4.586"/><path stroke-width="2.229" d="m69.514 58.833h-1.7806-10.247a2.4441 2.4441 60 0 1-2.1167-3.6662l6.0139-10.416a2.4441 2.4441 2.522e-7 0 1 4.2333 0l6.0139 10.416a2.4441 2.4441 120 0 1-2.1167 3.6662z" transform="matrix(.96114 .55492 .55492 -.96114 95.916 111.74)"/><path stroke-width="24.566" d="m195.01 114.94c0 0.74202-0.59729 1.3393-1.3393 1.3393h-10.715c-0.74202 0-1.3393-0.5973-1.3393-1.3393s0.5973-1.3393 1.3393-1.3393h10.715c0.74202 0 1.3393 0.59729 1.3393 1.3393zm-6.6967-6.6967c0.74202 0 1.3393 0.5973 1.3393 1.3393v10.715c0 0.74202-0.5973 1.3393-1.3393 1.3393-0.74203 0-1.3393-0.5973-1.3393-1.3393v-10.715c0-0.74203 0.5973-1.3393 1.3393-1.3393z"/></g><style>g,path{fill:#000}@media (prefers-color-scheme:dark){g,path{fill:#fff}}</style></svg>